# xmcd CD database file
#
# Track frame offsets:
#	150
#	24750
#	58962
#	78189
#	105750
#	124919
#	129214
#	157078
#	183071
#	215636
#	247941
#
# Disc length: 3607 seconds
#
# Revision: 1
# Processed by: cddbd v1.5.2PL0 Copyright (c) Steve Scherf et al.
# Submitted via: CDex 1.51
#
DISCID=820e150b
DTITLE=schiltknecht dahinden - bann
DYEAR=2006
DGENRE=Jazz
TTITLE0=selbsanft
TTITLE1=gheist
TTITLE2=schjien
TTITLE3=segnas
TTITLE4=fairen
TTITLE5=ramin
TTITLE6=deyen
TTITLE7=urlaun
TTITLE8=russein
TTITLE9=ruchen
TTITLE10=gspon
EXTD=YEAR: 2006
EXTT0=
EXTT1=
EXTT2=
EXTT3=
EXTT4=
EXTT5=
EXTT6=
EXTT7=
EXTT8=
EXTT9=
EXTT10=
PLAYORDER=
